<svg width="50" height="50" viewBox="0 0 50 50" fill="none" xmlns="http://www.w3.org/2000/svg">
<g clip-path="url(#clip0_0_541)">
<rect x="-1" width="50" height="50" rx="15" fill="#7752BE"/>
<path d="M29.7239 26.5982C29.9084 26.7768 29.9501 26.9821 29.8489 27.2143C29.7477 27.4524 29.5721 27.5714 29.3221 27.5714H25.9114L27.7061 31.8214C27.7656 31.9702 27.7656 32.1161 27.7061 32.2589C27.6465 32.4018 27.5453 32.506 27.4025 32.5714L25.8221 33.2411C25.6733 33.3006 25.5275 33.3006 25.3846 33.2411C25.2418 33.1815 25.1376 33.0804 25.0721 32.9375L23.3668 28.9018L20.5811 31.6875C20.468 31.8006 20.334 31.8571 20.1793 31.8571C20.1078 31.8571 20.0364 31.8423 19.965 31.8125C19.7269 31.7113 19.6078 31.5357 19.6078 31.2857V17.8571C19.6078 17.6071 19.7269 17.4315 19.965 17.3304C20.0364 17.3006 20.1078 17.2857 20.1793 17.2857C20.34 17.2857 20.4739 17.3423 20.5811 17.4554L29.7239 26.5982Z" fill="white"/>
</g>
<defs>
<clipPath id="clip0_0_541">
<rect width="50" height="50" fill="white"/>
</clipPath>
</defs>
</svg>
